# xmcd
#
# Track frame offsets: 
#        225
#        11852
#        33835
#        54075
#        73277
#        85197
#        105032
#        121177
#        146817
#        172282
#        189580
#
# Disc length: 2765 seconds
#
# Revision: 0
# Processed by: cddbd v1.5.2PL0 Copyright (c) Steve Scherf et al.
# Submitted via: ExactAudioCopy v0.95b3
#
DISCID=920aca0b
DTITLE=Lonstar - Cos mi nie pasuje
DYEAR=1995
DGENRE=Country
TTITLE0=Cos mi nie pasuje
TTITLE1=Caly swiat, ona i ja
TTITLE2=Bylem chmura
TTITLE3=Tocz sie wielka rzeko
TTITLE4=Dla kierowców ze stu tysiecy szos
TTITLE5=Zmysly pod kontrola
TTITLE6=Legenda europejskiego kowboja
TTITLE7=Tym, co nie zasneli
TTITLE8=Odlegle wizje
TTITLE9=Radio
TTITLE10=Jade na poludnie
EXTD=
EXTT0=
EXTT1=
EXTT2=
EXTT3=
EXTT4=
EXTT5=
EXTT6=
EXTT7=
EXTT8=
EXTT9=
EXTT10=
PLAYORDER=
